<svg xmlns="http://www.w3.org/2000/svg" fill="currentColor" viewBox="0 0 3840 4870"><path d="M1627.7 80q310 830-160 1320-90 90-505 425T347.7 2430q-180 250-240 585t10 690q70 355 410 655t910 430q-530-270-575-900t485-1130q-140 460 60 730t530 150q310-100 510 65t190 445q-20 410-350 560 490-80 840-375t490-635q140-340 140-700 0-280-115-530t-225-380q-110-130-155-355t105-455q-640 60-580 850 20 240-175 375t-395 25q-150-90-155-250t135-290q210-210 280-515t-130-700q-200-395-720-695Z" fill-rule="evenodd"/></svg>
