<svg xmlns="http://www.w3.org/2000/svg">
	<symbol id="dragon-white" viewBox="0 0 450 450">
		<g fill="none" fill-opacity="1" fill-rule="evenodd" stroke="#000" stroke-dasharray="none" stroke-linecap="round" stroke-linejoin="round" stroke-miterlimit="4" stroke-opacity="1" stroke-width="15" opacity="1"><path d="M220 100c105 10 165 80 160 290H150c0-90 100-65 80-210" fill="#fff"/><path d="M240 180c4 30-55 74-80 90-30 20-28 43-50 40-10-10 14-30 0-30-10 0 2 12-10 20-10 0-40 10-40-40-8-10-10-20 1-40 6-13 17-10 23-19 10-14 21-35 27-45L120 140c30-45 93-68 115-68 7 0 0 3-4 10-4 8 3 20 3 20" fill="#fff"/><path d="M87 238a5 5 0 11-10 0 5 5 0 11 10 0zm63-80a5 15 30 11-10-5 5 15 30 11 10 5" fill="#000"/></g><path d="M250 260c0 34 32 35 31 0m26 12c-1 36 32 37 32 0m-70 41c0 35 30 36 30 0m-84 10c0 33 30 33 30 0" fill="none" stroke="#000" stroke-linecap="round" stroke-linejoin="miter" stroke-opacity="1" stroke-width="10"/><path d="M330 336c0 30 30 30 30 0" fill="none" stroke="#000" stroke-dasharray="none" stroke-linecap="round" stroke-linejoin="miter" stroke-miterlimit="4" stroke-opacity="1" stroke-width="10"/>
	</symbol>
	<symbol id="dragon-black" viewBox="0 0 450 450">
		<g fill="none" fill-opacity="1" fill-rule="evenodd" stroke="#000" stroke-dasharray="none" stroke-linecap="round" stroke-linejoin="round" stroke-miterlimit="4" stroke-opacity="1" stroke-width="15" opacity="1"><path d="M220 100c105 10 165 80 160 290H150c0-90 100-65 80-210" fill="#000" fill-opacity="1" stroke="#000"/><path d="M240 180c4 30-55 74-80 90-30 20-28 43-50 40-10-10 14-30 0-30-10 0 2 12-10 20-10 0-40 10-40-40-8-10-10-20 1-40 6-13 17-10 23-19 10-14 21-35 27-45L120 140c30-45 93-68 115-68 7 0 0 3-4 10-4 8 3 20 3 20" fill="#000" fill-opacity="1" stroke="#000"/><path d="M87 238a5 5 0 11-10 0 5 5 0 11 10 0" fill="#fff" fill-opacity="1" stroke="#fff" stroke-opacity="1"/><path d="M150 158a5 15 30 11-10-5 5 15 30 11 10 5" fill="#000" stroke="#fff" stroke-opacity="1"/></g><path d="M250 260c0 34 32 35 31 0m26 12c-1 36 32 37 32 0m-70 41c0 35 30 36 30 0m-84 10c0 33 30 33 30 0m85 13c0 30 30 30 30 0" fill="none" stroke="#fff" stroke-dasharray="none" stroke-linecap="round" stroke-linejoin="miter" stroke-miterlimit="4" stroke-opacity="1" stroke-width="12"/>
	</symbol>
</svg>