<svg xmlns="http://www.w3.org/2000/svg">
	<symbol id="rose-white" viewBox="0 0 450 450">
		<g fill="#FFF" stroke="#000" stroke-linecap="round" stroke-linejoin="round" stroke-width="15"><path d="M220 100c105 10 165 80 160 290H150c0-90 100-65 80-210"/><path d="M240 180c4 30-56 74-80 90-30 20-28 43-50 40-10-10 14-30 0-30-10 0 2 12-10 20-10 0-40 10-40-40 0-20 60-120 60-120s19-19 20-35c-7-10-5-20-5-30 10-10 30 25 30 25h20s8-20 25-30c10 0 10 30 10 30"/></g><path d="M95 255a5 5 0 11-10 0 5 5 0 11 10 0Zm58-113a5 15 30 11-16 26 5 15 30 11 16-26Z" fill="#000" stroke="#000" stroke-linejoin="round" stroke-width="15"/><g fill="#FFF" stroke="#000" stroke-linejoin="miter" stroke-width="30" transform="rotate(45-162 463) scale(.5)"><path d="M50 50h50a50 50 0 10 0-100H50v-50a50 50 0 10-100 0v50h-50a50 50 0 10 0 100h50v50a50 50 0 10 100 0Z"/><circle fill="#000" x="0" y="0" r="30"/></g>
	</symbol>
	<symbol id="rose-black" viewBox="0 0 450 450">
		<g fill="#000" stroke="#000" stroke-linecap="round" stroke-linejoin="round" stroke-width="15"><path d="M220 100c105 10 165 80 160 290H150c0-90 100-65 80-210"/><path d="M240 180c4 30-56 74-80 90-30 20-28 43-50 40-10-10 14-30 0-30-10 0 2 12-10 20-10 0-40 10-40-40 0-20 60-120 60-120s19-19 20-35c-7-10-5-20-5-30 10-10 30 25 30 25h20s8-20 25-30c10 0 10 30 10 30"/></g><g fill="#FFF" stroke="#FFF" stroke-linejoin="round" stroke-width="15"><path d="m246 104-5 14 5 2c31 10 56 25 79 68A391 391 0 01 353 390l-1 5h23V390a410 410 0 00-33-213c-23-45-57-67-91-72l-6-1Z" stroke="none"/><path d="M95 255a5 5 0 11-10 0 5 5 0 11 10 0Zm58-113a5 15 30 11-16 26 5 15 30 11 16-26Z"/></g><g fill="#FFF" stroke="#000" stroke-linejoin="miter" stroke-width="30" transform="rotate(45-162 463) scale(.5)"><path d="M50 50h50a50 50 0 10 0-100H50v-50a50 50 0 10-100 0v50h-50a50 50 0 10 0 100h50v50a50 50 0 10 100 0Z"/><circle fill="#000" x="0" y="0" r="30"/></g>
	</symbol>
</svg>