<svg xmlns="http://www.w3.org/2000/svg">
	<symbol id="zebra-white" viewBox="0 0  119 119">
		<g transform="translate(-6-8) scale(.29986)"><path d="M220 100c105 10 165 80 160 290H150c0-90 100-65 80-210" fill="#fff" fill-opacity="1" fill-rule="evenodd" stroke="#303042" stroke-dasharray="none" stroke-linecap="round" stroke-linejoin="miter" stroke-miterlimit="4" stroke-opacity="1" stroke-width="15"/><path d="M240 180c4 30-56 74-80 90-30 20-28 43-50 40-10-10 14-30 0-30-10 0 2 12-10 20-10 0-40 10-40-40 0-20 60-120 60-120s19-20 20-35c-7-10-5-20-5-30 10-10 30 25 30 25h20s8-20 25-30c10 0 10 30 10 30" fill="#fff" fill-opacity="1" fill-rule="evenodd" stroke="#303042" stroke-dasharray="none" stroke-linecap="round" stroke-linejoin="round" stroke-miterlimit="4" stroke-opacity="1" stroke-width="15"/><circle fill="#2b2b3c" fill-opacity="1" cx="85" cy="235" r="5" stroke="#303042" stroke-dasharray="none" stroke-linecap="round" stroke-linejoin="round" stroke-miterlimit="4" stroke-opacity="1" stroke-width="15" opacity="1" transform="translate( 5 20)"/><ellipse fill="#2b2b3c" fill-opacity="1" cx="145" cy="155" stroke="#303042" stroke-dasharray="none" stroke-linecap="round" stroke-linejoin="round" stroke-miterlimit="4" stroke-opacity="1" stroke-width="15" opacity="1" rx="5" ry="15" transform="rotate(30 145 155)"/><path d="M370 390c10-200-55-275-120-285" fill="none" stroke="#303042" stroke-dasharray="none" stroke-linecap="round" stroke-linejoin="miter" stroke-miterlimit="4" stroke-opacity="1" stroke-width="10"/><path d="M136 175c-10-3-9-16 0-30a30 30 0 01 10-10l10 1c7 4 6 15-1 26-6 10-14 15-20 13zm-50 92c-8-3-10-13-5-20a10 10 0 01 10-4c6 0 10 5 10 12 0 6-2 10-7 11-3 2-5 2-8 0" fill="#000"/><path d="M143 392c0-22 4-38 15-54 5-8 10-14 29-32a120 120 0 00 28-37 114 114 0 00 10-43l-3 3a414 414 0 01-54 44c-14 10-18 14-30 29-8 11-13 15-22 15h-8c-3-1-6-5-7-8v-2H79c-12-3-20-12-24-25-1-7-3-19-2-24 0-8 6-20 18-45a1227 1227 0 01 60-105v-5c-3-5-3-10-3-20s0-12 4-15c4-2 10-3 14 0 6 2 14 11 20 20l3 4h12l4-7c5-8 12-15 18-20l7-2c9 0 14 7 16 22l1 8h4l40 10a164 164 0 01 94 100c13 34 20 77 22 131v63H143v-5zm223-28c0-20 0-46-2-64a277 277 0 00-48-150c-16-20-46-35-85-40l-11-2c-5 0-7-4-7-10L210 80l-5 3c-4 5-9 10-12 17-3 7-3 7-17 7-15 0-15 0-20-9a65 65 0 00-14-15v5c0 5 0 7 3 10l2 10c0 8-6 19-16 30A760 760 0 00 70 251l-3 7v8c1 15 5 23 13 26 3 1 16 2 17 0l1-5c0-6 1-9 4-11 3-3 10-4 14-2 4 2 6 7 6 10l-4 10c-3 8-4 10-2 9h2l10-10c10-14 16-20 28-29 35-24 57-45 70-62 4-7 6-13 6-18 0-6 1-8 4-10 3-2 8-1 10 3 3 5 1 15-3 24-3 5-3 5-3 12 0 25-4 46-12 63a150 150 0 01-35 44c-10 10-19 20-20 23a73 73 0 00-15 39h208v-18" fill="#000"/><path d="M291 385c44-39 48-13 88-24l-3-15a200 200 0 00-124 41zm-88 1c50-53 84-66 172-72l-1-13c-48 1-150 18-199 89Zm32-143c45 0 78-18 125-23-4-12-4-23-8-19-27 20-67 20-118 30-4-5 2 1 1 11zM240 200c38-19 80-17 95-33l-11-13c-10 24-58 24-80 38zm66-67L270 146l20-27zm-53-29L239 130l-8-30 21 3zm115 149c-44 12-86 25-143 24l-44 48c40-26 90-50 193-56" fill="#000" fill-opacity="1" stroke="#000" stroke-linecap="butt" stroke-linejoin="miter" stroke-opacity="1" stroke-width="10"/></g>
	</symbol>
	<symbol id="zebra-black" viewBox="0 0  119 119">
		<g transform="translate(-7-10) scale(.30435)"><path d="M220 100c105 10 165 80 160 290H150c0-90 100-65 80-210" fill="#2b2b3c" fill-opacity="1" fill-rule="evenodd" stroke="#303042" stroke-linecap="round" stroke-linejoin="miter" stroke-opacity="1" stroke-width="10"/><path d="M240 180c4 30-56 74-80 90-30 20-28 43-50 40-10-10 14-30 0-30-10 0 2 12-10 20-10 0-40 10-40-40 0-20 60-120 60-120s19-20 20-35c-7-10-5-20-5-30 10-10 30 25 30 25h20s8-20 25-30c10 0 10 30 10 30" fill="#2b2b3c" fill-opacity="1" fill-rule="evenodd" stroke="#303042" stroke-linecap="round" stroke-linejoin="round" stroke-opacity="1" stroke-width="10"/><circle fill="#2b2b3c" fill-opacity="1" cx="85" cy="235" r="5" stroke="#fff" stroke-dasharray="none" stroke-linecap="round" stroke-linejoin="round" stroke-miterlimit="4" stroke-opacity="1" stroke-width="10" opacity="1" transform="translate( 5 20)"/><ellipse fill="#2b2b3c" fill-opacity="1" cx="145" cy="155" stroke="#fff" stroke-dasharray="none" stroke-linecap="round" stroke-linejoin="round" stroke-miterlimit="4" stroke-opacity="1" stroke-width="10" opacity="1" rx="5" ry="15" transform="rotate(30 145 155)"/><path d="m246 104-4 11 6 1c31 5 63 22 86 65 22 43 29 110 24 209v5h17V390a410 410 0 00-33-213c-23-45-57-67-91-72Z" fill="#fff" fill-opacity="1" fill-rule="evenodd"/><path d="M146 385A90 90 0 01 160 340l24-27c20-20 28-32 34-45 5-10 8-25 9-38v-10l-10 10a342 342 0 01-45 37c-17 12-25 20-36 34-8 10-14 14-22 14-6 0-9-2-10-7l-2-4h-10c-12 1-18 0-24-6-7-6-10-15-12-27-1-12 0-18 7-34a824 824 0 01 70-122c2-7 2-7 0-13L130 85c0-10 0-10 3-14L140 70c5 0 13 6 21 17l7 9h14l3-5 12-15c8-8 10-9 13-9 4 0 5 1 8 4 3 3 6 13 6 20 0 5 0 6 8 7 69 10 113 50 135 121 11 37 16 77 18 138v39h-10v-31c2-65-5-117-20-160-18-48-48-81-85-94l-24-6-3 10 7 3c24 3 50 20 67 39 30 38 42 87 42 178l-1 49v12H144v-10zm-50-123a10 10 0 00-6-17 10 10 0 00-10 10c0 5 5 10 10 10 2 0 5-1 7-3zm48-90a40 40 0 00 15-27c0-5-5-10-10-8-4 0-10 8-14 16-4 9-5 15-1 18 3 3 5 3 10 0" fill="#000"/><path d="M200 380c50-50 114-56 164-66l1 7c-50 10-108 19-148 59Zm163-95c-56 6-128 10-183 53 21-27 28-26 36-40 40-10 92-20 144-28zm-125-27c60-10 80-20 112-28v-10c-34 8-67 22-110 25zm127 98c-38 4-56 9-79 24l31-1c23-16 34-14 47-14zm-34-178c-16 14-50 22-84 30l2-7c22-7 28 2 75-34zm-80-65-17 22 4-26zm49 21c-26 25-27 25-53 33 20-16 27-23 40-47" fill="#fff" fill-opacity="1" stroke="#fff" stroke-linecap="butt" stroke-linejoin="miter" stroke-opacity="1" stroke-width="10"/></g>
	</symbol>
</svg>